<svg version="1.1" id="Layer_1" xmlns="http://www.w3.org/2000/svg" xmlns:xlink="http://www.w3.org/1999/xlink" x="0px" y="0px"
	 width="100%" viewBox="0 0 1024 768" enable-background="new 0 0 1024 768" xml:space="preserve">
<path fill="#000000" opacity="1.000000" stroke="none" 
	d="
M293.471130,433.387299 
	C300.401459,429.588348 305.134674,423.525574 312.132050,419.948456 
	C316.175720,417.881256 321.365997,414.917877 324.476990,410.004913 
	C326.635498,406.596161 330.845703,404.312836 334.457703,402.030792 
	C345.379059,395.130829 355.291443,386.827698 365.958649,379.549835 
	C375.138092,373.287018 385.439850,368.354248 392.926178,359.506134 
	C397.302734,354.333527 398.647461,348.000610 401.645050,342.337799 
	C410.977814,324.707001 417.677277,305.855591 426.613129,288.006348 
	C431.417175,278.410278 434.630035,268.014923 439.003357,258.149078 
	C443.869110,247.172440 448.462616,236.124161 453.879364,225.349594 
	C460.388428,212.402206 464.740356,198.418396 467.812775,184.063965 
	C469.711975,175.190964 472.067688,166.347580 475.076965,157.695602 
	C477.331909,151.212463 478.335815,144.322632 478.581512,137.107880 
	C470.387573,137.693176 463.663330,140.754227 457.704926,145.188934 
	C453.002869,148.688568 447.796356,151.264267 442.824799,154.205124 
	C431.432373,160.944153 421.223694,169.262177 410.661560,177.105011 
	C399.106781,185.684921 387.470032,194.202042 376.452087,203.441803 
	C368.246399,210.323151 359.490906,216.543945 352.043060,224.421768 
	C344.700317,232.188446 335.672363,238.417419 328.697601,246.460358 
	C322.151031,254.009537 313.877472,259.721832 307.838531,267.677521 
	C305.947205,270.169128 303.627716,272.254028 300.542206,274.336273 
	C299.664673,270.689941 300.041962,267.629669 302.332886,265.397339 
	C311.268707,256.690186 318.363647,246.253891 327.579285,237.916733 
	C332.724182,233.262253 337.488617,228.153656 343.390106,224.091522 
	C347.855804,221.017654 350.661652,215.166672 355.572815,211.964172 
	C362.360229,207.538147 367.889038,201.513824 373.530457,196.015167 
	C381.828522,187.927048 391.712402,182.280212 400.718964,175.413452 
	C413.685913,165.527252 426.516235,155.308731 440.698730,147.038116 
	C447.283783,143.197968 453.168640,138.089691 459.916199,134.615265 
	C466.230652,131.363861 472.670593,127.825439 480.258667,127.838692 
	C484.797699,127.846619 486.815552,129.513168 487.344055,134.093307 
	C488.232574,141.793549 485.084259,148.756714 483.548004,155.994049 
	C482.278625,161.974030 480.934143,168.037766 478.995911,173.769180 
	C476.396362,181.456253 474.693542,189.364410 472.569122,197.130676 
	C469.809204,207.220215 466.656342,217.160599 462.122345,226.464386 
	C457.726898,235.483902 454.530548,244.966064 450.275299,254.038330 
	C446.366821,262.371368 441.969421,270.519348 438.805389,279.261292 
	C434.693451,290.622223 430.393188,301.892761 424.289093,312.511536 
	C419.211548,321.344452 415.881195,331.184845 411.830811,340.602142 
	C411.101013,342.298950 410.434387,344.333466 412.194580,345.666626 
	C414.113495,347.119904 414.966583,344.607269 416.368988,344.029755 
	C424.862457,340.532288 430.292542,332.838379 437.902222,328.267609 
	C443.601868,324.844055 449.025421,320.996887 454.063202,316.866760 
	C460.088623,311.926910 465.129333,305.729462 470.302460,299.819275 
	C478.917084,289.977295 486.171112,279.063599 494.649597,269.057739 
	C503.618805,258.472778 512.907715,248.161560 521.918152,237.615784 
	C527.226501,231.402893 533.765686,226.252411 539.618591,220.489365 
	C542.453430,217.698074 544.898743,214.515091 547.670898,211.655365 
	C551.458801,207.747818 556.711487,205.881882 560.465027,201.609375 
	C570.020752,190.732651 582.363831,183.037048 593.561829,174.017746 
	C602.595215,166.741959 612.226379,160.312225 621.473267,153.368561 
	C629.700806,147.190399 638.563843,141.702087 648.019287,137.080582 
	C653.521729,134.391159 658.295715,129.432724 664.344788,127.273193 
	C681.072998,121.301147 695.425049,110.187378 712.600525,105.220512 
	C715.323364,104.433113 717.869934,103.381386 720.850586,104.030525 
	C726.626709,105.288452 728.269714,109.820976 724.257324,114.272522 
	C715.986572,123.448555 706.138489,130.879257 696.860535,138.951035 
	C690.473511,144.507690 682.978821,148.500183 676.668457,154.104019 
	C676.296448,154.434341 675.901917,154.856827 675.452454,154.965149 
	C663.058960,157.952484 656.662170,169.120575 646.992371,175.818878 
	C642.848389,178.689468 639.782471,183.370926 633.385742,183.880859 
	C634.823853,180.696686 636.161316,178.363678 638.524475,176.737717 
	C648.578979,169.819626 658.035400,162.201889 666.842834,153.714264 
	C671.228882,149.487518 676.181763,145.770584 681.219238,142.321014 
	C685.944763,139.085068 690.661621,135.785049 695.567383,132.778885 
	C700.766357,129.593048 704.125977,123.405502 708.736694,118.004486 
	C705.637451,116.899971 703.625244,117.604515 701.429504,118.362076 
	C691.998657,121.615852 683.620972,126.858139 674.989563,131.697678 
	C665.247681,137.159821 654.591614,141.150909 645.365723,147.324768 
	C637.593994,152.525513 629.781189,157.814606 622.011658,163.020050 
	C606.350403,173.512833 592.475708,186.206100 577.340576,197.293991 
	C571.862671,201.307068 566.745972,205.543808 562.620300,210.944580 
	C561.178040,212.832642 559.439209,214.297012 557.003662,214.856659 
	C556.096619,215.065094 554.879211,215.565735 554.529480,216.285828 
	C552.488220,220.489426 548.408447,222.778534 545.620300,226.097992 
	C541.243042,231.309280 536.233459,235.801834 531.648254,240.744049 
	C523.326416,249.714005 515.213074,258.878235 506.841888,267.801147 
	C503.556305,271.303284 501.007172,275.351288 497.655029,278.838104 
	C493.036865,283.641754 493.395233,284.031769 499.073730,287.741791 
	C498.640442,290.799561 497.185730,292.751801 493.782318,293.100037 
	C491.340424,293.349884 489.775848,294.576324 488.608978,297.064911 
	C486.906128,300.696594 482.954926,302.877747 479.914856,304.776337 
	C472.103943,309.654541 467.639221,316.989838 463.560577,324.435364 
	C460.153992,330.653961 454.668121,335.133636 451.460602,341.389618 
	C445.870087,352.293549 438.295563,361.950439 431.564819,372.135742 
	C423.074860,384.983215 416.125122,398.781616 407.226562,411.373077 
	C407.074188,411.588654 407.207489,412.006165 407.207489,412.856537 
	C411.037140,414.106964 415.110565,412.353882 417.757263,410.800781 
	C428.937744,404.240051 441.110443,399.913910 452.604584,394.135925 
	C460.139069,390.348450 467.462128,386.218536 475.478668,383.416016 
	C479.512360,382.005829 479.353821,377.510925 480.356628,374.181488 
	C480.829071,372.612885 478.854645,372.399414 477.437805,372.930878 
	C474.114716,374.177399 471.298920,376.146057 468.838409,378.716766 
	C466.142639,381.533295 462.941681,383.559723 458.998932,384.188873 
	C457.791870,384.381470 456.573090,384.421661 456.069427,383.021179 
	C455.675781,381.926453 456.541107,381.279510 457.130768,380.451630 
	C462.939789,372.295959 472.444183,369.042419 479.994385,363.204285 
	C482.675293,361.131256 485.004639,358.836517 486.756287,356.070862 
	C492.648407,346.767975 500.835907,339.408020 507.614777,330.886932 
	C510.697723,327.011688 514.378784,323.879944 517.569275,320.262177 
	C521.439270,315.873840 526.820312,315.271301 531.529724,313.079437 
	C534.018127,311.921234 537.082397,312.761780 538.547546,315.400146 
	C540.253967,318.472809 539.128906,321.315308 537.128662,324.156464 
	C532.007507,331.430481 524.136902,335.677277 518.171448,341.888184 
	C514.257202,345.963440 509.561127,349.082031 505.877777,353.322052 
	C505.553986,353.694794 505.208740,354.238007 504.798767,354.317688 
	C500.311310,355.190002 498.134247,359.143677 494.852875,361.449219 
	C489.999084,364.859589 488.889374,369.942505 486.161224,374.289032 
	C485.455139,375.413971 484.904755,376.784576 486.152496,377.942169 
	C487.154053,378.871246 488.398590,378.603943 489.426178,378.022705 
	C499.072723,372.565948 509.949799,369.922913 519.220154,363.268555 
	C534.273743,352.462830 546.256775,338.941010 557.538635,324.585663 
	C563.335144,317.210052 571.636658,312.413452 577.392700,304.963257 
	C578.810791,303.127686 581.096863,304.442078 582.690796,305.857697 
	C584.328918,307.312622 585.409119,308.970306 583.721008,311.022369 
	C581.092957,314.216858 579.595032,318.154541 576.453918,321.061981 
	C570.318909,326.740601 567.926880,335.160919 562.185791,341.203918 
	C561.073669,342.374451 560.776184,344.166809 561.012512,346.880432 
	C572.656738,347.460938 582.196960,340.686890 594.012634,338.583588 
	C586.349731,327.570831 595.207642,321.482544 600.040283,315.489899 
	C608.253906,305.304657 613.942993,293.629913 621.534363,283.136841 
	C631.251221,269.705780 638.943481,254.916061 649.213257,241.819733 
	C655.654358,233.605820 661.483887,224.914398 667.704956,216.524094 
	C669.070068,214.682999 670.756409,212.973129 672.596680,211.610474 
	C679.365723,206.598160 683.646545,199.217758 689.922546,193.687836 
	C692.466431,191.446350 694.372375,188.474121 697.603333,186.917984 
	C699.113159,186.190857 700.497314,185.185928 702.432251,186.530426 
	C702.336487,189.023880 701.156982,191.265335 699.576355,193.057068 
	C692.944885,200.574249 685.949707,207.776169 679.451355,215.403351 
	C674.323792,221.421585 669.207886,227.568039 665.035828,234.250122 
	C660.517395,241.487045 654.616882,247.630966 650.100037,254.819092 
	C645.863464,261.561005 641.468445,268.203094 637.193176,274.920959 
	C636.304871,276.316803 635.598938,277.843689 636.234680,280.490356 
	C640.757507,279.006378 644.179138,275.745514 647.824402,273.349518 
	C660.079346,265.294434 672.067383,256.784607 685.328796,250.462662 
	C690.656250,247.922913 696.613342,246.657013 702.348328,245.039902 
	C704.966614,244.301620 707.593079,244.765152 711.298279,247.813950 
	C699.293213,250.516968 691.032715,259.218018 678.816223,260.291534 
	C681.115723,264.580200 677.834839,264.887451 675.343384,266.543976 
	C666.938110,272.132507 658.191467,277.161743 649.951843,283.058319 
	C637.352539,292.074829 626.644775,303.157104 615.157471,313.359650 
	C610.059753,317.887238 606.586304,324.272888 602.536438,329.930328 
	C601.517029,331.354370 600.721130,333.120148 601.107422,335.028870 
	C632.609863,326.632904 660.306519,311.788574 683.939148,287.873505 
	C679.286682,285.415314 676.381653,287.003479 673.686768,288.293030 
	C669.455078,290.318054 664.996277,291.610596 660.588074,293.094452 
	C657.752625,294.048889 655.456604,293.206970 654.430603,290.531097 
	C653.486267,288.068268 655.319336,286.294128 657.336182,285.405060 
	C668.569153,280.453308 679.892883,275.707825 691.138611,270.784607 
	C695.286316,268.968811 698.892151,268.910431 701.559814,273.115143 
	C704.145630,277.190857 701.026062,280.549744 698.852356,282.600708 
	C694.743408,286.477722 691.784180,291.288086 687.623657,295.028015 
	C686.370422,296.154572 685.105652,297.184784 685.252441,299.511292 
	C691.954224,299.699829 698.363037,299.783081 704.995789,297.384308 
	C718.520630,292.492889 732.017700,287.281036 746.697205,286.412476 
	C752.253662,286.083740 757.512024,283.180481 763.299805,283.697266 
	C764.449890,283.799988 765.657288,283.554169 766.676086,284.942566 
	C766.484131,289.095215 763.462524,290.681732 759.845886,291.148834 
	C742.746216,293.357300 726.741150,299.297180 710.717407,305.223785 
	C707.734375,306.327057 708.573303,308.479919 709.538940,310.081482 
	C714.786804,318.785400 713.963135,328.022888 711.062622,336.883118 
	C709.023010,343.113678 704.762268,348.463470 700.983643,353.994141 
	C697.389099,359.255402 692.852356,363.831177 689.710510,369.277344 
	C680.675415,384.939209 668.052551,397.139679 653.632263,407.580475 
	C650.426636,409.901520 647.397034,412.556671 644.076050,414.560516 
	C639.826538,417.124664 634.988464,418.804199 630.463196,420.926575 
	C623.684509,424.105896 616.317810,426.391815 608.927490,428.317810 
	C604.459167,429.482300 600.815674,428.905670 598.297729,425.282349 
	C595.976440,421.941956 596.914734,418.092346 598.362000,414.501678 
	C601.459045,406.818176 607.560730,401.830658 614.192505,397.528900 
	C619.996887,393.763824 625.147949,389.167053 630.583740,384.982819 
	C631.487610,386.008820 631.239502,386.809174 630.957458,387.598969 
	C630.395020,389.173767 628.322205,390.974792 630.864014,392.273865 
	C632.872070,393.300201 634.262390,391.352844 635.405273,390.010040 
	C638.436523,386.448456 641.148254,382.557892 643.878662,378.872650 
	C648.731445,372.322815 655.722595,367.219269 664.246643,364.791382 
	C674.502747,361.870209 682.832886,354.806335 692.558289,350.558136 
	C696.749084,348.727570 697.226929,343.126923 699.148376,339.192566 
	C701.651245,334.067474 704.359619,328.822357 703.143127,322.569336 
	C701.447144,313.851074 695.702759,310.527283 687.473938,313.642639 
	C673.744324,318.840637 659.756348,323.409363 646.244934,329.114166 
	C635.110657,333.815369 623.517456,337.178284 612.393677,341.918152 
	C603.625000,345.654510 594.664307,349.329010 585.492676,351.830688 
	C578.228516,353.812073 571.836426,357.764313 564.745972,359.599426 
	C555.251404,362.056763 546.476135,366.334290 537.334229,369.579590 
	C522.572632,374.819855 508.068268,381.067596 494.381622,388.949036 
	C488.865326,392.125610 482.083221,391.885712 476.463074,394.932770 
	C462.486359,402.510590 447.036041,406.667999 432.898895,414.047729 
	C425.600952,417.857361 417.743286,421.618286 409.099884,422.392426 
	C401.117859,423.107269 398.481812,429.952118 395.165131,435.478607 
	C386.140106,450.516815 378.483521,466.330048 369.826965,481.596344 
	C366.602631,487.282654 363.012665,493.100250 360.692688,499.474304 
	C357.505402,508.231293 350.800568,515.222473 347.575714,524.026489 
	C344.107147,533.495850 339.005524,542.185486 334.589966,551.198364 
	C331.714874,557.066895 329.041595,563.027832 324.998352,568.346008 
	C322.780090,571.263733 322.345306,575.471191 320.645508,578.866333 
	C318.577148,582.997681 317.175690,587.437683 314.288635,591.232483 
	C312.876282,593.088989 312.665802,595.485352 309.359283,594.423889 
	C306.142426,593.391418 305.734497,590.898132 306.247192,588.472595 
	C307.275879,583.606323 308.406036,578.662903 310.376648,574.135376 
	C311.384033,571.820740 311.976593,569.463867 312.706238,567.131958 
	C317.878265,550.603088 323.014465,534.071289 328.767822,517.723450 
	C334.190369,502.315521 338.855682,486.642456 344.025909,471.143341 
	C345.174164,467.701172 346.872742,464.404633 348.645874,461.223877 
	C349.627655,459.462708 350.093170,457.960449 349.028442,455.909943 
	C342.618378,456.899109 337.549530,460.900269 332.041412,463.724182 
	C321.913696,468.916443 312.134247,474.778687 302.080750,480.130493 
	C295.785797,483.481476 289.271576,486.932892 282.997345,490.441254 
	C277.491821,493.519745 273.088470,498.216766 266.797577,500.297485 
	C259.761658,502.624664 254.720001,508.936615 247.831543,511.880554 
	C237.744751,516.191406 229.428894,523.656860 219.147614,527.672791 
	C215.814850,528.974548 212.412766,529.477234 209.029877,530.018127 
	C206.491470,530.424072 203.563736,529.945740 202.074661,527.187683 
	C200.506454,524.282959 200.536285,521.887390 202.433395,518.518066 
	C205.904892,512.352600 209.808563,506.642853 214.019623,500.988190 
	C216.226547,498.024750 219.114975,496.298004 221.689056,494.052643 
	C227.568863,488.923859 232.174576,482.192963 238.260529,477.762695 
	C248.341125,470.424500 257.490875,462.015015 267.146210,454.243988 
	C275.774292,447.299683 285.105133,441.221893 293.471130,433.387299 
M271.741913,488.672424 
	C270.816742,490.074127 268.428650,490.558136 269.120605,493.373260 
	C271.959198,492.662109 274.896210,492.464630 276.453400,488.918945 
	C274.797577,488.580688 273.392731,488.293701 272.152069,487.344574 
	C273.772064,484.250427 276.549866,482.349701 279.439545,480.729156 
	C292.387543,473.467712 305.325684,466.182343 318.413055,459.177826 
	C329.687561,453.143585 341.166779,447.486725 352.133728,440.892181 
	C355.557831,438.833221 358.246368,436.299286 360.065674,432.331055 
	C362.412994,427.211090 363.851776,421.720978 366.539703,416.796692 
	C372.238342,406.356842 377.131683,395.542786 381.961670,384.692413 
	C382.650330,383.145294 383.488190,381.391144 382.020172,380.075836 
	C380.535217,378.745361 378.595917,379.007538 376.906006,380.043335 
	C376.061279,380.561127 375.222015,381.157806 374.550415,381.877563 
	C363.866669,393.327637 349.899597,400.532684 337.843018,410.221100 
	C329.127319,417.224915 319.775757,423.465515 310.694275,429.994659 
	C301.506134,436.600494 293.057495,444.341431 283.871399,451.115875 
	C268.695221,462.307831 254.960678,475.296783 240.312881,487.133942 
	C231.352219,494.375244 224.177795,503.244415 215.722733,510.882172 
	C213.540176,512.853821 212.195450,515.188599 212.981750,518.286804 
	C215.273560,519.211914 217.132111,518.508972 218.873840,517.493835 
	C224.808411,514.034790 231.304932,511.713501 237.139175,507.985565 
	C244.495712,503.285004 252.151443,499.108887 259.240417,493.915100 
	C262.887177,491.243286 266.685150,487.808289 271.741913,488.672424 
M385.228058,401.743408 
	C380.564331,409.109344 375.794250,416.417419 372.890930,424.729309 
	C372.276642,426.487915 370.486328,428.092682 372.186157,430.189178 
	C375.671570,430.647705 377.819672,427.646179 380.921783,426.989777 
	C387.542572,425.588806 392.500244,421.517151 395.822266,415.725189 
	C399.669708,409.017303 402.659424,401.770416 406.925781,395.359283 
	C417.312988,379.750122 425.798706,362.965637 436.723633,347.706299 
	C437.879822,346.091400 438.813202,344.186218 440.301025,342.965393 
	C443.937683,339.981415 445.047424,335.855194 446.407227,332.239868 
	C441.315369,332.449066 438.327057,335.892700 434.723999,338.780060 
	C432.310394,340.714203 429.446960,341.759369 428.457733,345.079590 
	C428.318695,345.546204 427.408722,346.022003 426.818176,346.074738 
	C423.913300,346.334229 422.276031,348.249207 420.304871,350.136810 
	C417.337982,352.977936 413.980438,355.577484 410.394073,357.568237 
	C404.283875,360.959869 400.307892,365.868927 398.471985,372.450714 
	C397.929657,374.395050 397.013336,376.063385 396.310028,377.860748 
	C393.189331,385.836243 386.949310,392.361938 385.228058,401.743408 
M620.169373,403.180634 
	C616.671082,408.009918 612.876099,412.552399 607.854248,415.906830 
	C606.982117,416.489349 606.173950,417.197601 606.690613,418.318481 
	C606.909546,418.793549 607.909180,419.429871 608.166138,419.288391 
	C612.214050,417.059509 617.219543,418.596039 621.095764,416.188629 
	C630.672668,410.240662 640.034668,403.945709 649.628357,398.025757 
	C657.055237,393.442902 662.491455,386.576660 669.322327,381.403870 
	C674.811768,377.246918 676.584717,370.945007 681.892700,365.320190 
	C676.339783,367.003571 673.792664,370.308838 670.352417,372.312714 
	C661.806458,377.290710 653.247803,382.289459 645.044617,387.801270 
	C637.115784,393.128693 628.913208,397.968750 620.169373,403.180634 
M343.734222,501.359558 
	C342.995453,506.569366 339.724884,511.172363 339.951569,516.658386 
	C353.988770,491.685638 368.509033,467.045471 380.459381,440.970551 
	C373.706940,442.176208 368.477386,445.642059 363.182861,448.883759 
	C361.896210,449.671539 360.923401,451.383820 360.364258,452.879608 
	C357.232483,461.257538 354.552185,469.814148 351.168884,478.085266 
	C348.151367,485.462158 347.208099,493.433075 343.734222,501.359558 
M553.656189,349.140533 
	C553.415283,348.018585 552.917603,346.173279 551.707520,347.204010 
	C549.267700,349.282349 545.703308,350.367310 544.074219,354.991638 
	C548.308655,353.726196 552.223755,354.325348 553.656189,349.140533 
M520.389648,327.777435 
	C520.017151,328.830658 519.227234,329.252991 518.166443,329.505402 
	C516.786804,329.833649 514.988098,329.857483 514.933044,331.890137 
	C514.908997,332.778320 515.608337,333.467102 516.595398,333.312805 
	C518.233337,333.056702 520.069702,332.803955 520.557373,330.891022 
	C520.829285,329.824890 521.792236,328.627045 520.389648,327.777435 
M338.495239,522.794128 
	C338.526733,522.046631 338.984772,521.235596 337.806946,520.300354 
	C337.400391,523.589539 334.577759,526.099426 335.606293,530.260498 
	C338.364075,528.082520 337.376434,525.421814 338.495239,522.794128 
z"/>
<path fill="#000000" opacity="1.000000" stroke="none" 
	d="
M659.486694,445.548004 
	C645.494385,453.244659 630.965881,459.010803 617.331665,466.657593 
	C613.376892,468.875671 608.073242,472.193726 602.590576,468.506622 
	C598.879639,466.011017 598.728516,464.190613 602.705627,462.246857 
	C610.134216,458.616241 617.584412,455.001678 625.190430,451.768127 
	C644.005127,443.769562 662.165100,434.424194 680.419617,425.271576 
	C682.927917,424.013977 685.247681,422.354462 687.567078,420.753998 
	C689.640076,419.323608 691.515503,419.366516 693.759521,421.248810 
	C692.112732,426.151062 687.844116,428.569763 683.921021,431.027466 
	C676.001282,435.989044 668.388489,441.494385 659.486694,445.548004 
z"/>
<path fill="#000000" opacity="1.000000" stroke="none" 
	d="
M539.202515,252.130493 
	C541.977234,249.628876 545.628235,248.961746 547.485046,245.641342 
	C548.241516,244.288559 550.504395,242.705536 552.115417,243.285324 
	C557.047180,245.060303 557.271179,241.539551 557.968506,238.452789 
	C561.900208,240.577560 562.074707,245.039062 558.246094,247.161987 
	C553.678223,249.694839 548.643677,251.380768 545.082520,255.562088 
	C543.985535,256.850037 542.252075,255.803116 540.353577,255.328110 
	C541.014404,260.669678 535.680908,260.164215 533.263245,262.631775 
	C527.589844,268.422119 521.014587,273.556580 513.350647,276.870880 
	C510.916077,277.923706 508.685364,280.104584 507.522125,281.833252 
	C504.911560,285.712860 502.749268,284.059296 498.217896,282.278748 
	C513.221558,272.861206 525.466980,261.842865 539.202515,252.130493 
z"/>
<path fill="#000000" opacity="1.000000" stroke="none" 
	d="
M602.653687,286.465942 
	C595.729553,280.531555 593.661377,274.332062 596.826233,269.183289 
	C599.872742,264.227142 605.120728,262.751373 610.331238,261.858093 
	C613.330078,261.344025 615.065491,264.624023 613.724609,267.908295 
	C613.120972,269.386749 611.853027,270.600037 610.856384,271.910767 
	C608.752808,274.677399 606.631897,277.173187 607.875488,281.292297 
	C608.959290,284.882172 607.096252,287.064728 602.653687,286.465942 
z"/>
<path fill="#000000" opacity="1.000000" stroke="none" 
	d="
M604.072021,212.443420 
	C601.039124,213.447983 598.733582,213.237823 597.475952,209.296555 
	C601.917480,210.633896 603.039795,206.633362 605.704468,205.177612 
	C606.986145,204.477463 608.313904,203.230179 609.590332,204.872009 
	C610.805908,206.435532 609.475403,207.681915 608.472046,208.690979 
	C607.205994,209.964264 605.729187,211.027954 604.072021,212.443420 
z"/>
<path fill="#000000" opacity="1.000000" stroke="none" 
	d="
M625.211609,194.198135 
	C624.179016,195.044220 623.417480,195.697510 622.558777,196.176498 
	C621.629089,196.695007 620.556946,196.775848 619.881470,195.806717 
	C619.225342,194.865326 619.464905,193.660492 620.391479,193.175415 
	C623.960327,191.306961 626.216675,187.861725 629.578796,185.759842 
	C631.135071,184.786911 631.962524,185.600388 633.046814,186.802124 
	C630.427979,189.255569 627.933960,191.592087 625.211609,194.198135 
z"/>
<path fill="#000000" opacity="1.000000" stroke="none" 
	d="
M572.479370,231.889893 
	C572.796814,236.352280 568.465210,239.345352 563.516235,238.235504 
	C564.287415,233.231247 568.163086,232.471024 572.479370,231.889893 
z"/>
</svg>